<?xml version="1.0" encoding="utf-8"?>
<svg width="1280" height="832" viewBox="0 0 1280 832" fill="none" xmlns="http://www.w3.org/2000/svg">
  <g clip-path="url(#clip0_633_545)">
    <rect width="1280" height="832" style="stroke: rgb(186, 218, 85); paint-order: stroke; fill: rgb(4, 6, 11);"/>
    <path d="M87.5 49L151.153 85.75L151.153 159.25L87.5 196L23.8471 159.25L23.8471 85.75L87.5 49Z" fill="#FFE87C" fill-opacity="0.5"/>
    <path d="M157.5 161L221.153 197.75L221.153 271.25L157.5 308L93.8471 271.25L93.8471 197.75L157.5 161Z" fill="#FFC800" fill-opacity="0.5"/>
    <path d="M19.5 -66L83.1529 -29.25L83.1529 44.25L19.5 81L-44.1529 44.25L-44.1529 -29.25L19.5 -66Z" fill="#FFE87C" fill-opacity="0.5"/>
    <path d="M161.5 -66L225.153 -29.25L225.153 44.25L161.5 81L97.8471 44.25L97.8471 -29.25L161.5 -66Z" fill="#FFE87C" fill-opacity="0.5"/>
    <path d="M-45.5 53L18.1529 89.75L18.1529 163.25L-45.5 200L-109.153 163.25L-109.153 89.75L-45.5 53Z" fill="#FFE87C" fill-opacity="0.5"/>
    <path d="M19.5 166L83.1529 203L83.1529 277L19.5 314L-44.1529 277L-44.1529 203L19.5 166Z" fill="#FFC800" fill-opacity="0.5"/>
    <path d="M18.5 399L82.1529 435.75L82.1529 509.25L18.5 546L-45.1529 509.25L-45.1529 435.75L18.5 399Z" fill="#DCAA61" fill-opacity="0.5"/>
    <path d="M157.5 394L221.153 430.75L221.153 504.25L157.5 541L93.8471 504.25L93.8471 430.75L157.5 394Z" fill="#DCAA61" fill-opacity="0.5"/>
    <path d="M-48.5 285L15.1529 321.75L15.1529 395.25L-48.5 432L-112.153 395.25L-112.153 321.75L-48.5 285Z" fill="#FFC800" fill-opacity="0.5"/>
    <path d="M87.5 278L151.153 314.75L151.153 388.25L87.5 425L23.8471 388.25L23.8471 314.75L87.5 278Z" fill="#FFC800" fill-opacity="0.5"/>
    <path d="M-48.5 513L15.1529 549.75L15.1529 623.25L-48.5 660L-112.153 623.25L-112.153 549.75L-48.5 513Z" fill="#DCAA61" fill-opacity="0.5"/>
    <path d="M224.5 750L288.153 786.75V860.25L224.5 897L160.847 860.25L160.847 786.75L224.5 750Z" fill="#BA7106" fill-opacity="0.5"/>
    <path d="M87.5 513L151.153 549.75L151.153 623.25L87.5 660L23.8471 623.25L23.8471 549.75L87.5 513Z" fill="#DCAA61" fill-opacity="0.5"/>
    <path d="M157.5 631L221.153 667.75L221.153 741.25L157.5 778L93.8471 741.25L93.8471 667.75L157.5 631Z" fill="#BA7106" fill-opacity="0.5"/>
    <path d="M87.5 750L151.153 786.75L151.153 860.25L87.5 897L23.8471 860.25L23.8471 786.75L87.5 750Z" fill="#BA7106" fill-opacity="0.5"/>
    <path d="M-48.5 742L15.1529 778.75L15.1529 852.25L-48.5 889L-112.153 852.25L-112.153 778.75L-48.5 742Z" fill="#BA7106" fill-opacity="0.7"/>
    <path d="M18.5 628L82.1529 664.75L82.1529 738.25L18.5 775L-45.1529 738.25L-45.1529 664.75L18.5 628Z" fill="#BA7106" fill-opacity="0.5"/>
    <path d="M1182.5 51L1121.45 86.5V157.5L1182.5 193L1243.55 157.5V86.5L1182.5 51Z" fill="#FFE87C" fill-opacity="0.5"/>
    <path d="M1115.5 158L1054.45 193.5V264.5L1115.5 300L1176.55 264.5V193.5L1115.5 158Z" fill="#FFC800" fill-opacity="0.5"/>
    <path d="M1247 -58L1186.38 -23V47L1247 82L1307.62 47V-23L1247 -58Z" fill="#FFE87C" fill-opacity="0.5"/>
    <path d="M1112 -58L1051.38 -23V47L1112 82L1172.62 47V-23L1112 -58Z" fill="#FFE87C" fill-opacity="0.5"/>
    <path d="M1310 56L1248.51 91V161L1310 196L1371.49 161V91L1310 56Z" fill="#FFE87C" fill-opacity="0.5"/>
    <path d="M1247 165L1186.38 200V270L1247 305L1307.62 270V200L1247 165Z" fill="#FFC800" fill-opacity="0.5"/>
    <path d="M1248.5 387L1187.45 422V492L1248.5 527L1309.55 492V422L1248.5 387Z" fill="#DCAA61" fill-opacity="0.5"/>
    <path d="M1115.5 382L1054.45 417.25V487.75L1115.5 523L1176.55 487.75V417.25L1115.5 382Z" fill="#DCAA61" fill-opacity="0.5"/>
    <path d="M1312.5 278L1251.45 313.25V383.75L1312.5 419L1373.55 383.75V313.25L1312.5 278Z" fill="#FFC800" fill-opacity="0.5"/>
    <path d="M1182.5 271L1121.45 306.25V376.75L1182.5 412L1243.55 376.75V306.25L1182.5 271Z" fill="#FFC800" fill-opacity="0.5"/>
    <path d="M1312.5 496L1251.45 531V601L1312.5 636L1373.55 601V531L1312.5 496Z" fill="#DCAA61" fill-opacity="0.5"/>
    <path d="M1051 723L990.378 758V828L1051 863L1111.62 828V758L1051 723Z" fill="#BA7106" fill-opacity="0.5"/>
    <path d="M1182.5 496L1121.45 531V601L1182.5 636L1243.55 601V531L1182.5 496Z" fill="#DCAA61" fill-opacity="0.5"/>
    <path d="M1115.5 610L1054.45 645V715L1115.5 750L1176.55 715V645L1115.5 610Z" fill="#BA7106" fill-opacity="0.5"/>
    <path d="M1182.5 723L1121.45 758V828L1182.5 863L1243.55 828V758L1182.5 723Z" fill="#BA7106" fill-opacity="0.5"/>
    <path d="M1312.5 716L1251.45 751V821L1312.5 856L1373.55 821V751L1312.5 716Z" fill="#BA7106" fill-opacity="0.5"/>
    <path d="M1248.5 606L1187.45 641.25V711.75L1248.5 747L1309.55 711.75V641.25L1248.5 606Z" fill="#BA7106" fill-opacity="0.5"/>
  </g>
  <defs>
    <clipPath id="clip0_633_545">
      <rect width="1280" height="832" fill="white"/>
    </clipPath>
  </defs>
</svg>