<svg width="509" height="147" viewBox="0 0 509 147" fill="none" xmlns="http://www.w3.org/2000/svg">
<g clip-path="url(#clip0_898_1048)">
<path d="M99.3956 43.5606C95.4315 43.6074 91.5187 44.4731 87.7926 46.4678C85.7487 47.5621 82.6612 50.4532 80.7595 52.9529C80.0592 53.8737 79.5695 54.7153 79.2892 55.32L121.781 57.686C121.542 56.2508 121.018 54.5374 120.213 52.9278C118.784 50.0691 116.575 47.5493 114.651 46.7809C109.673 44.7939 104.492 43.5005 99.3956 43.5606ZM90.0198 48.5932L90.2108 50.6075L87.3081 50.9309L87.1171 48.9165L90.0198 48.5932ZM75.6985 58.0601C72.7352 58.9928 71.63 61.1719 70.7304 63.5778C70.0765 65.3272 68.9853 68.9729 69.7176 68.9729C72.2809 69.4633 74.4779 69.1807 77.1954 69.1696C82.6674 69.1473 89.7657 69.2245 97.016 69.4182C104.266 69.6119 111.666 69.9213 117.748 70.3667C121.602 70.649 124.845 70.9433 127.313 71.3537C127.161 69.7787 127.105 68.2911 126.849 66.9383C126.434 64.738 125.652 62.8549 123.081 60.9267L75.6985 58.0601ZM120.263 62.1572L122.004 62.8881L120.951 65.8389L119.21 65.108L120.263 62.1572ZM82.7525 64.1736L83.5152 66.0212L80.8517 67.3143L80.0892 65.4654L82.7525 64.1736ZM79.3195 72.3298C78.5915 72.3295 77.886 72.3309 77.2064 72.3337C74.4877 72.3448 72.1778 72.3808 70.475 72.4387C69.6236 72.4677 68.9231 72.5021 68.4107 72.5403C67.9076 72.5777 67.5087 72.6549 67.5959 72.6281L67.5931 72.6288C67.0334 72.7885 66.5057 73.277 66.0628 74.1611C65.6199 75.0453 65.5001 75.9578 65.4456 77.1881C65.3911 78.4184 65.4032 79.9612 65.7684 80.8466C66.117 81.6918 66.5581 82.1713 67.1198 82.3893C81.6991 84.3441 97.6403 85.225 110.668 85.4036C111.389 80.3991 113.598 75.8713 117.659 76.1606C123.374 76.5677 122.749 81.144 122.726 85.3579C126.078 85.277 128.994 85.1387 131.329 84.9532L131.337 84.9525L131.113 84.9701C130.273 85.6408 131.793 84.9242 131.113 84.9701C131.423 84.1933 131.898 81.7007 131.745 80.3761C131.592 79.0516 131.423 77.796 130.869 76.8203C130.315 75.8445 129.351 75.6104 129.404 75.4715L127.313 74.7358C125.743 74.368 123.565 73.9641 117.551 73.5236C111.537 73.0831 104.167 72.774 96.944 72.5812C90.6244 72.4125 84.4156 72.3323 79.3195 72.3298ZM98.6668 76.962L101.376 78.1364L100.683 80.0166L97.9737 78.842L98.6668 76.962ZM68.6409 85.7761C68.2644 87.302 68.3066 89.0076 68.7522 90.5135C69.3896 92.6672 70.7267 94.2869 72.6219 94.7286C92.0381 97.9333 110.605 98.7566 128.556 97.8223C129.761 95.7896 130.408 93.3645 130.312 91.361C130.25 90.0685 129.96 89.0257 129.391 88.256C116.381 89.041 91.2515 88.6488 68.6409 85.7761ZM78.3778 90.9862L80.1188 91.7173L79.0658 94.6681L77.3241 93.9372L78.3778 90.9862ZM124.711 94.3665L125.973 95.8585L123.822 97.9971L122.56 96.5049L124.711 94.3665ZM75.4104 98.3683C75.7648 99.1075 76.0873 99.8245 76.4268 100.484C77.3403 102.257 78.293 103.659 80.4599 104.719C89.1209 108.954 96.7832 110.447 106.357 109.959L105.864 109.746L106.557 107.865L109.266 109.04L108.993 109.78C109.843 109.708 110.706 109.624 111.589 109.525C114.445 109.205 117.185 107.476 119.25 105.378C120.58 104.027 121.559 102.512 122.169 101.282L121.878 101.259C110.864 101.553 99.608 101.17 88.0671 99.9815L88.9254 100.342L87.8722 103.292L86.1305 102.562L87.0881 99.8807C83.1863 99.4643 79.2929 98.9599 75.4104 98.3683Z" fill="url(#paint0_linear_898_1048)"/>
<rect width="44.9191" height="2.48559" rx="1.24279" transform="matrix(0.998787 0.0492488 -0.0488035 0.998808 78.1395 55.7388)" fill="white"/>
<path d="M71.8119 96.8365C71.5717 95.9516 72.3143 95.1097 73.2222 95.2377L85.2191 96.9291L92.7868 97.7874L99.6221 98.2779L107.19 98.6458L114.513 98.6458L126.765 98.264C127.734 98.2339 128.279 99.3665 127.652 100.105C127.447 100.347 127.148 100.49 126.831 100.498L113.659 100.853L106.946 100.853L99.6221 100.485L92.7868 100.117L85.9515 99.3815L72.8886 97.7699C72.3735 97.7064 71.9479 97.3374 71.8119 96.8365Z" fill="white"/>
<path d="M67.3336 84.019C67.3685 83.3051 67.9998 82.7698 68.7099 82.8521L83.2963 84.5424L99.8662 85.648L108.044 85.8936L115.978 85.8936L130.864 85.6632C131.404 85.6548 131.846 86.0899 131.846 86.6294C131.846 87.335 131.331 87.935 130.634 88.0428L130.259 88.1008L114.635 88.346L107.068 88.2233L98.8897 87.9781L83.2963 86.8746L68.4391 85.3091C67.7868 85.2404 67.3016 84.6741 67.3336 84.019Z" fill="white"/>
<path d="M67.5383 70.7554C67.548 70.158 68.0377 69.6804 68.6352 69.6855L97.7941 69.9375L113.058 70.4361L116.842 70.6833L120.501 71.0531L126.837 71.7744C127.377 71.8359 127.786 72.293 127.786 72.8369C127.786 73.4628 127.251 73.9553 126.628 73.9033L120.376 73.3828L113.059 72.7658L97.7953 72.1446L68.6155 71.861C68.012 71.8551 67.5285 71.3589 67.5383 70.7554Z" fill="white"/>
<path d="M89.8054 48.8638L89.9792 50.5876L87.4679 50.8431L87.2941 49.1193L89.8054 48.8638Z" fill="black"/>
<path d="M89.8054 48.8638L89.9792 50.5876L87.4679 50.8431L87.2941 49.1193L89.8054 48.8638Z" fill="black"/>
<path d="M82.7042 64.3135L83.2662 65.9075L80.9351 67.011L80.2147 65.5648L82.7042 64.3135Z" fill="black"/>
<path d="M82.7042 64.3135L83.2662 65.9075L80.9351 67.011L80.2147 65.5648L82.7042 64.3135Z" fill="black"/>
<rect width="1.45368" height="2.32266" transform="matrix(0.937397 0.348262 -0.345484 0.938425 120.32 62.5967)" fill="black"/>
<path d="M98.7676 77.188L101.087 78.1689L100.599 79.7629L98.1573 78.782L98.7676 77.188Z" fill="black"/>
<path d="M78.4857 91.2891L79.8543 91.813L78.9941 94.4771L77.5294 93.8098L78.4857 91.2891Z" fill="black"/>
<path d="M87.2941 99.9944L88.7588 100.485L87.7824 103.06L86.3176 102.447L87.2941 99.9944Z" fill="black"/>
<path d="M122.77 96.5391L124.723 94.5993L125.821 95.8254L123.79 97.6647L122.77 96.5391Z" fill="black"/>
<path d="M106.701 108.087L109.143 109.068L108.899 109.681L107.434 109.804L106.701 109.804L106.091 109.681L106.701 108.087Z" fill="black"/>
<path d="M100.476 35.6211L104.504 36.8473L104.382 43.8364L99.9882 43.4685L100.476 35.6211Z" fill="#A16207"/>
</g>
<path d="M59.2243 84.39C60.0043 84.63 60.3943 85.14 60.3943 85.92V86.19C61.8943 90.33 62.6443 94.98 62.6443 100.14C60.2443 102.66 57.0643 104.49 53.1043 105.63C49.2043 106.77 44.1043 107.34 37.8043 107.34C27.4843 107.34 19.0543 104.61 12.5143 99.15C5.61426 93.39 2.16426 85.38 2.16426 75.12C2.16426 69.36 2.97426 64.53 4.59426 60.63C6.27426 56.67 8.91426 53.31 12.5143 50.55C14.6143 48.93 17.1943 47.52 20.2543 46.32C23.3743 45.12 26.7643 44.19 30.4243 43.53C34.0843 42.87 37.7743 42.54 41.4943 42.54C42.4543 42.54 43.2643 42.6 43.9243 42.72C44.5843 42.78 45.3643 42.87 46.2643 42.99C47.2243 43.11 48.5743 43.29 50.3143 43.53C50.6743 43.53 51.0343 43.59 51.3943 43.71C51.7543 43.77 52.1443 43.83 52.5643 43.89L55.5343 44.34C56.0143 44.4 56.5843 44.52 57.2443 44.7C57.9043 44.88 58.4443 44.97 58.8643 44.97C58.9243 44.97 58.9843 45 59.0443 45.06C59.1043 45.06 59.1943 45.09 59.3143 45.15C59.3743 45.21 59.4343 45.3 59.4943 45.42C59.5543 45.54 59.6143 45.63 59.6743 45.69C60.0943 45.93 60.3343 46.05 60.3943 46.05H60.6643L60.8443 47.85C60.9043 48.33 60.9343 48.81 60.9343 49.29C60.9343 49.77 60.9643 50.25 61.0243 50.73C61.0843 51.33 61.1143 52.14 61.1143 53.16C61.1743 54.18 61.2043 55.29 61.2043 56.49C61.2043 58.11 61.0543 59.34 60.7543 60.18C60.5143 60.96 60.0643 61.59 59.4043 62.07L51.8443 60.99H50.5843C49.9843 60.99 49.5943 60.99 49.4143 60.99C49.2943 60.93 49.1443 60.9 48.9643 60.9C48.7843 60.84 48.3343 60.84 47.6143 60.9L47.5243 60.99C42.9643 60.99 39.3343 62.28 36.6343 64.86C33.9943 67.44 32.6743 70.92 32.6743 75.3C32.6743 79.5 33.9343 82.77 36.4543 85.11C39.0343 87.45 42.3343 88.38 46.3543 87.9L50.2243 87.45C51.3643 87.33 52.5643 87.12 53.8243 86.82C55.1443 86.52 56.9443 85.71 59.2243 84.39ZM164.836 105.09L139.186 104.91C138.166 104.91 137.506 104.25 137.206 102.93C136.906 101.85 136.756 100.65 136.756 99.33C136.756 97.29 136.726 95.16 136.666 92.94C136.666 90.72 136.636 88.2 136.576 85.38C136.516 82.44 136.456 79.44 136.396 76.38C136.336 73.26 136.306 70.05 136.306 66.75V46.95C136.306 46.41 136.546 45.9 137.026 45.42C137.566 44.88 138.106 44.61 138.646 44.61L149.086 44.7C149.746 44.76 150.526 44.79 151.426 44.79C152.326 44.79 154.036 44.79 156.556 44.79C158.836 44.79 160.846 44.79 162.586 44.79C164.326 44.79 165.826 44.76 167.086 44.7L170.416 44.61C172.276 44.55 173.926 44.52 175.366 44.52C176.866 44.46 178.156 44.43 179.236 44.43C183.676 44.43 187.696 45.33 191.296 47.13C194.896 48.87 197.746 51.36 199.846 54.6C202.786 59.16 204.256 64.77 204.256 71.43C204.256 77.73 203.536 83.01 202.096 87.27C200.656 91.47 198.436 94.89 195.436 97.53C192.376 100.17 188.386 102.12 183.466 103.38C178.546 104.58 172.336 105.15 164.836 105.09ZM165.646 79.26L165.016 94.65C165.316 94.71 165.796 94.74 166.456 94.74C166.816 94.74 167.206 94.74 167.626 94.74C168.106 94.68 168.646 94.62 169.246 94.56C169.426 94.5 169.576 94.47 169.696 94.47C169.876 94.41 170.056 94.35 170.236 94.29C170.296 94.23 170.386 94.2 170.506 94.2C170.686 94.2 170.806 94.17 170.866 94.11C171.826 93.27 172.696 91.77 173.476 89.61C174.256 87.45 175.066 84.3 175.906 80.16C176.146 78.66 176.296 77.16 176.356 75.66C176.476 74.16 176.536 72.66 176.536 71.16V69.45C176.536 67.71 176.386 65.91 176.086 64.05C175.786 62.19 175.396 60.51 174.916 59.01C174.436 57.51 173.926 56.46 173.386 55.86C172.426 55.02 171.586 54.6 170.866 54.6C170.086 54.6 169.396 54.66 168.796 54.78C168.196 54.9 167.776 54.99 167.536 55.05C167.476 55.11 167.116 55.26 166.456 55.5L166.366 66.3C166.366 66.78 166.306 67.38 166.186 68.1C166.126 68.82 166.066 69.66 166.006 70.62L165.916 72.78C165.856 75.72 165.766 77.88 165.646 79.26ZM230.328 105.36H216.108C215.448 105.36 214.998 105.33 214.758 105.27C214.458 105.21 214.128 105.15 213.768 105.09C213.408 105.09 213.018 105.06 212.598 105L210.708 104.55C210.408 104.55 210.168 104.46 209.988 104.28C209.988 104.16 209.988 104.1 209.988 104.1C209.988 102.54 209.898 100.5 209.718 97.98C209.718 97.02 209.658 96.21 209.538 95.55C209.478 94.89 209.418 94.29 209.358 93.75L209.178 89.97C209.118 89.43 209.088 88.83 209.088 88.17C209.148 87.51 209.148 86.76 209.088 85.92L208.908 83.22C208.848 82.08 208.818 81.06 208.818 80.16C208.878 79.26 208.878 78.51 208.818 77.91C208.818 77.61 208.788 77.25 208.728 76.83C208.728 76.35 208.728 75.6 208.728 74.58C208.728 73.5 208.728 71.94 208.728 69.9C208.728 64.2 208.758 59.61 208.818 56.13C208.938 52.59 209.118 49.5 209.358 46.86C209.358 46.26 210.108 45.72 211.608 45.24C212.208 45.18 212.898 45.15 213.678 45.15C214.518 45.09 215.298 45.06 216.018 45.06C218.478 45.06 220.578 45.06 222.318 45.06C224.118 45 225.588 44.91 226.728 44.79C230.268 44.73 233.358 44.7 235.998 44.7C238.638 44.64 240.888 44.61 242.748 44.61H246.708C249.228 44.61 251.418 44.67 253.278 44.79C255.138 44.91 256.728 45.03 258.048 45.15C258.948 45.15 259.638 46.26 260.118 48.48C260.238 48.72 260.328 49.08 260.388 49.56C260.448 50.04 260.568 50.79 260.748 51.81C260.868 53.13 260.988 54.15 261.108 54.87C261.228 55.59 261.348 56.28 261.468 56.94C261.528 57.06 261.558 57.39 261.558 57.93C261.498 57.99 261.468 58.23 261.468 58.65C261.408 59.19 261.078 59.46 260.478 59.46C260.358 59.4 260.028 59.37 259.488 59.37C258.168 59.37 256.728 59.46 255.168 59.64C253.668 59.76 251.958 59.88 250.038 60L245.358 60.36L240.678 60.81C240.498 60.81 240.258 61.14 239.958 61.8C239.778 62.22 239.598 62.52 239.418 62.7C239.238 62.82 239.118 63.15 239.058 63.69L238.878 66.75C238.818 67.53 238.908 68.04 239.148 68.28C239.388 68.52 239.838 68.64 240.498 68.64H248.508C250.788 68.64 253.458 68.82 256.518 69.18H257.418C258.558 69.18 259.248 69.84 259.488 71.16L259.668 80.07V80.34C259.668 81.42 258.648 82.02 256.608 82.14C256.068 82.32 255.258 82.44 254.178 82.5C253.098 82.56 251.448 82.59 249.228 82.59C247.008 82.59 245.538 82.59 244.818 82.59C244.158 82.59 243.678 82.56 243.378 82.5C242.118 82.5 241.308 82.5 240.948 82.5C240.588 82.5 240.348 82.53 240.228 82.59C239.628 82.71 239.208 82.86 238.968 83.04C238.788 83.16 238.698 83.55 238.698 84.21C238.698 84.81 238.668 85.95 238.608 87.63C238.548 87.87 238.488 88.2 238.428 88.62C238.428 88.98 238.428 89.82 238.428 91.14C242.028 91.14 244.848 91.11 246.888 91.05C248.928 90.99 250.518 90.93 251.658 90.87C253.398 90.81 254.958 90.78 256.338 90.78C257.778 90.72 259.068 90.69 260.208 90.69C260.388 90.69 260.628 90.9 260.928 91.32C261.168 91.74 261.498 92.82 261.918 94.56C262.338 96.3 262.848 98.67 263.448 101.67C263.568 101.97 263.628 102.42 263.628 103.02C263.628 104.28 263.058 104.91 261.918 104.91C259.998 104.91 257.868 105 255.528 105.18C255.108 105.24 254.508 105.27 253.728 105.27C253.008 105.27 251.478 105.27 249.138 105.27C247.038 105.27 244.698 105.27 242.118 105.27C239.598 105.27 237.258 105.27 235.098 105.27C232.998 105.33 231.408 105.36 230.328 105.36ZM285.456 105.45C281.676 105.45 278.586 105.39 276.186 105.27C273.846 105.15 271.596 104.79 269.436 104.19C269.196 104.19 268.956 103.89 268.716 103.29C268.536 102.63 268.446 102.15 268.446 101.85L266.736 70.17V68.28C266.736 68.04 266.736 67.74 266.736 67.38C266.736 66.96 266.766 66.54 266.826 66.12C266.886 65.52 266.916 64.89 266.916 64.23C266.916 63.51 266.916 62.67 266.916 61.71L267.096 57.03V54.33C267.096 53.43 267.096 52.56 267.096 51.72C267.156 50.82 267.216 49.98 267.276 49.2C267.276 48.54 267.336 48.12 267.456 47.94V47.67C267.516 47.61 267.606 47.52 267.726 47.4C267.846 47.28 267.996 47.16 268.176 47.04C268.536 46.8 268.806 46.59 268.986 46.41C269.526 45.87 270.396 45.6 271.596 45.6H278.256C278.556 45.66 278.976 45.69 279.516 45.69C280.116 45.69 280.806 45.69 281.586 45.69C282.426 45.69 283.206 45.69 283.926 45.69C284.706 45.69 285.306 45.72 285.726 45.78H294.636C296.196 45.78 297.276 46.05 297.876 46.59C298.536 47.07 298.866 48.09 298.866 49.65V50.55C298.866 50.79 298.836 51.03 298.776 51.27C298.716 51.51 298.686 51.75 298.686 51.99L298.506 53.34V54.51C298.506 54.81 298.536 55.05 298.596 55.23C298.656 55.41 298.686 55.74 298.686 56.22C298.686 57 298.686 57.69 298.686 58.29C298.686 58.83 298.656 59.28 298.596 59.64L298.506 63.33H300.936C301.656 63.51 302.526 63.63 303.546 63.69C304.566 63.75 305.346 63.78 305.886 63.78C306.186 63.84 306.516 63.9 306.876 63.96C307.296 63.96 307.776 63.96 308.316 63.96L308.406 57.84C308.466 57.54 308.496 57.21 308.496 56.85C308.496 56.43 308.496 55.98 308.496 55.5L308.586 51.81V51C308.586 50.16 308.616 49.38 308.676 48.66C308.736 47.88 308.826 47.31 308.946 46.95C309.486 46.41 309.936 46.14 310.296 46.14C310.476 46.08 310.746 46.05 311.106 46.05C311.526 45.99 312.126 45.96 312.906 45.96H315.246C316.086 45.96 316.866 45.96 317.586 45.96C318.306 45.9 318.966 45.84 319.566 45.78H324.696C327.096 45.78 329.076 45.78 330.636 45.78C332.256 45.72 333.456 45.66 334.236 45.6H336.666C338.106 45.6 339.036 45.75 339.456 46.05C340.116 46.47 340.446 47.52 340.446 49.2C340.446 50.34 340.416 51.69 340.356 53.25C340.356 54.81 340.326 56.61 340.266 58.65C340.086 62.43 339.996 65.49 339.996 67.83C339.996 68.19 340.026 68.49 340.086 68.73C340.146 68.97 340.206 69.15 340.266 69.27V69.63L338.016 102.93C338.016 103.17 337.776 103.56 337.296 104.1C336.816 104.64 336.366 104.91 335.946 104.91H311.196C311.136 104.91 311.046 104.85 310.926 104.73C310.866 104.61 310.776 104.52 310.656 104.46C310.476 104.1 310.356 103.74 310.296 103.38C310.236 103.02 310.146 102.57 310.026 102.03L309.756 100.14L308.766 83.49H308.136C307.296 83.49 306.546 83.49 305.886 83.49C305.286 83.49 304.716 83.46 304.176 83.4C303.096 83.34 302.196 83.31 301.476 83.31C300.816 83.25 300.336 83.22 300.036 83.22H299.226C298.746 83.22 298.506 83.73 298.506 84.75V98.88C298.506 99.24 298.476 99.87 298.416 100.77C298.356 101.61 298.206 102.45 297.966 103.29C297.726 104.13 297.276 104.67 296.616 104.91L295.176 105C292.836 105.12 290.856 105.21 289.236 105.27C287.676 105.33 286.416 105.39 285.456 105.45ZM352.408 106.71L350.068 107.07C349.228 107.07 348.598 106.62 348.178 105.72C347.818 104.88 347.578 103.95 347.458 102.93C347.398 101.85 347.368 101.04 347.368 100.5C347.368 99.36 347.338 98.7 347.278 98.52C347.218 97.5 347.158 96.21 347.098 94.65C347.038 93.03 346.918 91.14 346.738 88.98L346.378 85.02C346.138 81.9 345.988 79.26 345.928 77.1C345.868 74.88 345.838 73.02 345.838 71.52V46.41C345.838 45.81 346.318 45.42 347.278 45.24C348.238 45 349.348 44.88 350.608 44.88C350.968 44.88 351.388 44.88 351.868 44.88C352.348 44.88 352.828 44.91 353.308 44.97C353.788 45.03 354.208 45.09 354.568 45.15C354.928 45.15 355.228 45.15 355.468 45.15C355.948 45.21 356.608 45.27 357.448 45.33C358.288 45.33 359.248 45.33 360.328 45.33L360.688 45.06H365.188C365.488 45.24 365.758 45.33 365.998 45.33H366.358C366.478 45.21 366.868 45.15 367.528 45.15C367.588 45.09 367.648 45.06 367.708 45.06H367.888C368.128 45.06 368.368 45.09 368.608 45.15L369.238 45.33H374.728C375.568 45.33 376.138 45.54 376.438 45.96C376.738 46.32 376.888 46.65 376.888 46.95L377.158 63.24C377.158 63.42 377.128 63.6 377.068 63.78L376.798 65.31C376.558 66.57 376.438 67.71 376.438 68.73C376.438 69.69 376.438 70.53 376.438 71.25V91.41L376.168 95.28C376.108 96.18 376.048 96.99 375.988 97.71C375.928 98.43 375.928 99.06 375.988 99.6C375.988 102.3 375.658 104.1 374.998 105C374.638 105.54 374.038 105.81 373.198 105.81L373.108 105.63L372.658 105.54C372.538 105.54 372.478 105.57 372.478 105.63H372.028C371.848 105.69 371.698 105.75 371.578 105.81C371.458 105.87 371.368 105.93 371.308 105.99C371.128 105.99 370.828 105.96 370.408 105.9C369.988 105.84 369.478 105.75 368.878 105.63L367.438 105.54C367.138 105.54 366.958 105.69 366.898 105.99H357.628L354.928 106.44L352.408 106.71ZM404.176 106.44C403.756 106.44 403.336 106.38 402.916 106.26C402.556 106.2 402.136 106.14 401.656 106.08C401.236 106.02 400.816 105.96 400.396 105.9C399.976 105.84 399.586 105.81 399.226 105.81C399.106 105.81 399.046 105.84 399.046 105.9H398.506C397.906 105.54 397.606 105.24 397.606 105L391.216 86.01C390.556 84.03 389.776 81.57 388.876 78.63C387.976 75.69 386.926 72.54 385.726 69.18C384.526 65.76 383.116 62.4 381.496 59.1C381.436 58.98 381.406 58.71 381.406 58.29L381.136 57.12C381.016 56.58 380.926 56.19 380.866 55.95C380.806 55.71 380.776 55.32 380.776 54.78C380.776 54.3 380.656 53.73 380.416 53.07C380.236 52.35 380.236 51.66 380.416 51C380.596 50.28 381.256 49.71 382.396 49.29L384.466 48.39L391.756 46.77C391.816 46.77 391.936 46.77 392.116 46.77C392.296 46.71 392.416 46.71 392.476 46.77C392.596 46.83 392.656 46.77 392.656 46.59C392.716 46.35 392.776 46.23 392.836 46.23C392.836 46.23 392.866 46.26 392.926 46.32C392.986 46.32 393.046 46.29 393.106 46.23C393.166 46.17 393.226 46.14 393.286 46.14C393.466 46.08 393.586 46.05 393.646 46.05C393.766 46.05 393.916 46.02 394.096 45.96L394.636 45.69L396.436 45.6L402.106 44.52C403.426 44.1 404.446 44.16 405.166 44.7C405.946 45.18 406.516 45.84 406.876 46.68C407.296 47.52 407.596 48.24 407.776 48.84L409.306 52.89C409.486 53.31 409.786 54.24 410.206 55.68C410.686 57.06 411.166 58.53 411.646 60.09C412.186 61.59 412.546 62.76 412.726 63.6L412.816 63.96C412.816 64.32 412.846 64.62 412.906 64.86C413.206 65.1 413.446 65.49 413.626 66.03C413.866 66.51 414.016 66.9 414.076 67.2L414.616 69.09L415.786 71.7L417.586 77.19L418.126 78.54L419.026 80.07C419.026 79.95 419.176 79.62 419.476 79.08C419.776 78.54 420.076 77.97 420.376 77.37C420.676 76.77 420.826 76.41 420.826 76.29L421.906 72.06L422.806 68.82C422.926 68.52 422.986 68.22 422.986 67.92C423.046 67.56 423.106 67.26 423.166 67.02L423.436 65.58L423.706 64.23C423.826 63.63 424.036 63.09 424.336 62.61C424.696 62.07 424.996 61.23 425.236 60.09C426.616 54.63 427.636 50.55 428.296 47.85C428.956 45.15 429.976 43.98 431.356 44.34L435.226 44.52L442.066 45.24C442.366 45.24 442.696 45.36 443.056 45.6C443.476 45.84 443.806 45.93 444.046 45.87L446.836 46.14C447.676 46.2 448.516 46.68 449.356 47.58C450.196 48.48 450.376 49.47 449.896 50.55C449.896 50.85 449.866 51.27 449.806 51.81C449.746 52.29 449.626 53.07 449.446 54.15C449.386 54.39 449.296 54.63 449.176 54.87C449.056 55.11 448.996 55.29 448.996 55.41C448.936 55.59 448.906 55.74 448.906 55.86C448.906 55.98 448.876 56.07 448.816 56.13C448.216 58.05 447.496 60.48 446.656 63.42C445.816 66.36 444.946 69.45 444.046 72.69C443.146 75.93 442.336 78.96 441.616 81.78C440.896 84.54 440.296 86.7 439.816 88.26L435.136 105C435.136 105.18 434.836 105.48 434.236 105.9H433.966L433.606 105.81C433.366 105.81 433.126 105.81 432.886 105.81C432.706 105.81 432.526 105.9 432.346 106.08C432.106 106.32 431.746 106.44 431.266 106.44C430.366 106.44 429.556 106.32 428.836 106.08C428.356 106.02 427.906 105.96 427.486 105.9C427.126 105.9 426.796 105.9 426.496 105.9C424.576 106.02 422.206 106.11 419.386 106.17C416.566 106.29 413.776 106.35 411.016 106.35C408.256 106.41 405.976 106.44 404.176 106.44ZM474.928 105.36H460.708C460.048 105.36 459.598 105.33 459.358 105.27C459.058 105.21 458.728 105.15 458.368 105.09C458.008 105.09 457.618 105.06 457.198 105L455.308 104.55C455.008 104.55 454.768 104.46 454.588 104.28C454.588 104.16 454.588 104.1 454.588 104.1C454.588 102.54 454.498 100.5 454.318 97.98C454.318 97.02 454.258 96.21 454.138 95.55C454.078 94.89 454.018 94.29 453.958 93.75L453.778 89.97C453.718 89.43 453.688 88.83 453.688 88.17C453.748 87.51 453.748 86.76 453.688 85.92L453.508 83.22C453.448 82.08 453.418 81.06 453.418 80.16C453.478 79.26 453.478 78.51 453.418 77.91C453.418 77.61 453.388 77.25 453.328 76.83C453.328 76.35 453.328 75.6 453.328 74.58C453.328 73.5 453.328 71.94 453.328 69.9C453.328 64.2 453.358 59.61 453.418 56.13C453.538 52.59 453.718 49.5 453.958 46.86C453.958 46.26 454.708 45.72 456.208 45.24C456.808 45.18 457.498 45.15 458.278 45.15C459.118 45.09 459.898 45.06 460.618 45.06C463.078 45.06 465.178 45.06 466.918 45.06C468.718 45 470.188 44.91 471.328 44.79C474.868 44.73 477.958 44.7 480.598 44.7C483.238 44.64 485.488 44.61 487.348 44.61H491.308C493.828 44.61 496.018 44.67 497.878 44.79C499.738 44.91 501.328 45.03 502.648 45.15C503.548 45.15 504.238 46.26 504.718 48.48C504.838 48.72 504.928 49.08 504.988 49.56C505.048 50.04 505.168 50.79 505.348 51.81C505.468 53.13 505.588 54.15 505.708 54.87C505.828 55.59 505.948 56.28 506.068 56.94C506.128 57.06 506.158 57.39 506.158 57.93C506.098 57.99 506.068 58.23 506.068 58.65C506.008 59.19 505.678 59.46 505.078 59.46C504.958 59.4 504.628 59.37 504.088 59.37C502.768 59.37 501.328 59.46 499.768 59.64C498.268 59.76 496.558 59.88 494.638 60L489.958 60.36L485.278 60.81C485.098 60.81 484.858 61.14 484.558 61.8C484.378 62.22 484.198 62.52 484.018 62.7C483.838 62.82 483.718 63.15 483.658 63.69L483.478 66.75C483.418 67.53 483.508 68.04 483.748 68.28C483.988 68.52 484.438 68.64 485.098 68.64H493.108C495.388 68.64 498.058 68.82 501.118 69.18H502.018C503.158 69.18 503.848 69.84 504.088 71.16L504.268 80.07V80.34C504.268 81.42 503.248 82.02 501.208 82.14C500.668 82.32 499.858 82.44 498.778 82.5C497.698 82.56 496.048 82.59 493.828 82.59C491.608 82.59 490.138 82.59 489.418 82.59C488.758 82.59 488.278 82.56 487.978 82.5C486.718 82.5 485.908 82.5 485.548 82.5C485.188 82.5 484.948 82.53 484.828 82.59C484.228 82.71 483.808 82.86 483.568 83.04C483.388 83.16 483.298 83.55 483.298 84.21C483.298 84.81 483.268 85.95 483.208 87.63C483.148 87.87 483.088 88.2 483.028 88.62C483.028 88.98 483.028 89.82 483.028 91.14C486.628 91.14 489.448 91.11 491.488 91.05C493.528 90.99 495.118 90.93 496.258 90.87C497.998 90.81 499.558 90.78 500.938 90.78C502.378 90.72 503.668 90.69 504.808 90.69C504.988 90.69 505.228 90.9 505.528 91.32C505.768 91.74 506.098 92.82 506.518 94.56C506.938 96.3 507.448 98.67 508.048 101.67C508.168 101.97 508.228 102.42 508.228 103.02C508.228 104.28 507.658 104.91 506.518 104.91C504.598 104.91 502.468 105 500.128 105.18C499.708 105.24 499.108 105.27 498.328 105.27C497.608 105.27 496.078 105.27 493.738 105.27C491.638 105.27 489.298 105.27 486.718 105.27C484.198 105.27 481.858 105.27 479.698 105.27C477.598 105.33 476.008 105.36 474.928 105.36Z" fill="black"/>
<defs>
<linearGradient id="paint0_linear_898_1048" x1="98.6061" y1="110.051" x2="101.806" y2="53.0346" gradientUnits="userSpaceOnUse">
<stop stop-color="#BA7106"/>
<stop offset="1" stop-color="#F9D423"/>
</linearGradient>
<clipPath id="clip0_898_1048">
<rect width="83" height="90" fill="white" transform="translate(58 29)"/>
</clipPath>
</defs>
</svg>
