<svg width="325" height="352" viewBox="0 0 325 352" fill="none" xmlns="http://www.w3.org/2000/svg">
<path d="M162.091 56.9478C146.569 57.1307 131.248 60.5166 116.658 68.3184C108.655 72.5981 96.565 83.9054 89.1186 93.6823C86.3764 97.2834 84.4588 100.575 83.3613 102.94L249.746 112.194C248.807 106.58 246.756 99.8794 243.605 93.584C238.01 82.4032 229.362 72.5479 221.826 69.5428C202.334 61.7713 182.048 56.7127 162.091 56.9478ZM125.379 76.6309L126.127 84.509L114.761 85.774L114.013 77.8952L125.379 76.6309ZM69.3015 113.657C57.698 117.305 53.3705 125.827 49.8482 135.237C47.2875 142.079 43.0148 156.338 45.8824 156.338C55.9192 158.256 64.5221 157.151 75.1626 157.108C96.5892 157.02 124.384 157.322 152.774 158.08C181.163 158.837 210.136 160.047 233.951 161.789C249.046 162.894 261.744 164.045 271.405 165.65C270.809 159.49 270.592 153.672 269.591 148.381C267.963 139.775 264.904 132.41 254.836 124.869L69.3015 113.657ZM243.8 129.681L250.619 132.54L246.494 144.081L239.677 141.222L243.8 129.681ZM96.9224 137.567L99.909 144.794L89.4798 149.851L86.4938 142.62L96.9224 137.567ZM83.48 169.467C80.6292 169.466 77.8667 169.472 75.2058 169.483C64.5601 169.526 55.5154 169.667 48.8478 169.893C45.514 170.007 42.7712 170.141 40.7647 170.29C38.795 170.437 37.2329 170.739 37.5744 170.634L37.5636 170.637C35.3717 171.261 33.3056 173.172 31.5714 176.63C29.8372 180.088 29.3677 183.657 29.1545 188.469C28.9412 193.281 28.9885 199.315 30.4186 202.778C31.7834 206.083 33.5106 207.959 35.71 208.811C92.7977 216.457 155.218 219.902 206.232 220.6C209.053 201.027 217.702 183.319 233.607 184.45C255.981 186.042 253.534 203.941 253.444 220.422C266.571 220.105 277.989 219.564 287.133 218.839L287.165 218.836L286.287 218.905C282.995 221.528 288.95 218.726 286.287 218.905C287.499 215.867 289.359 206.118 288.761 200.937C288.163 195.757 287.501 190.846 285.331 187.03C283.161 183.214 279.388 182.298 279.596 181.755L271.405 178.878C265.257 177.439 256.73 175.859 233.181 174.136C209.633 172.413 180.773 171.205 152.492 170.451C127.746 169.791 103.434 169.477 83.48 169.467ZM159.237 187.585L169.847 192.178L167.133 199.531L156.524 194.937L159.237 187.585ZM41.6661 222.057C40.1921 228.025 40.3572 234.696 42.1021 240.586C44.598 249.009 49.8336 255.344 57.2546 257.072C133.282 269.605 205.983 272.826 276.272 269.172C280.991 261.221 283.525 251.736 283.149 243.9C282.908 238.845 281.769 234.767 279.544 231.756C228.601 234.827 130.202 233.293 41.6661 222.057ZM79.7926 242.435L86.61 245.294L82.4866 256.835L75.6666 253.976L79.7926 242.435ZM261.217 255.655L266.159 261.491L257.738 269.855L252.796 264.019L261.217 255.655ZM68.1732 271.307C69.5608 274.198 70.824 277.002 72.1532 279.58C75.7301 286.517 79.4606 291.999 87.9456 296.144C121.859 312.709 151.862 318.548 189.351 316.641L187.418 315.805L190.133 308.45L200.742 313.044L199.673 315.938C202.999 315.658 206.38 315.33 209.838 314.943C221.021 313.689 231.748 306.93 239.834 298.723C245.041 293.439 248.876 287.513 251.264 282.704L250.123 282.612C206.998 283.763 162.923 282.264 117.733 277.616L121.094 279.025L116.97 290.566L110.15 287.708L113.899 277.222C98.6211 275.593 83.3758 273.621 68.1732 271.307Z" fill="url(#paint0_linear_432_529)"/>
<rect width="175.888" height="9.72144" rx="4.86072" transform="matrix(0.998789 0.0491917 -0.0488602 0.998806 78.8593 104.578)" fill="white"/>
<path d="M54.083 265.317C53.1422 261.856 56.0467 258.562 59.5981 259.062L106.581 265.678L136.213 269.035L162.978 270.954L192.61 272.392L221.287 272.392L269.266 270.899C273.055 270.781 275.189 275.213 272.733 278.101C271.93 279.046 270.762 279.605 269.522 279.638L217.941 281.024L191.654 281.024L162.978 279.586L136.213 278.147L109.449 275.27L58.2939 268.966C56.2796 268.718 54.6153 267.276 54.083 265.317Z" fill="white"/>
<path d="M36.5473 215.185C36.6839 212.393 39.1531 210.3 41.93 210.621L99.052 217.233L163.934 221.557L195.956 222.518L227.022 222.518L285.317 221.616C287.426 221.584 289.154 223.285 289.154 225.395C289.154 228.155 287.142 230.501 284.415 230.922L282.941 231.15L221.765 232.109L192.132 231.629L160.11 230.67L99.052 226.354L40.8714 220.231C38.3199 219.963 36.4219 217.748 36.5473 215.185Z" fill="white"/>
<path d="M37.3488 163.311C37.3869 160.974 39.3022 159.106 41.6389 159.126L155.82 160.112L215.588 162.062L230.407 163.029L244.732 164.475L269.546 167.297C271.66 167.537 273.257 169.325 273.258 171.452C273.259 173.9 271.168 175.826 268.728 175.623L244.243 173.587L215.593 171.174L155.825 168.744L41.5618 167.635C39.2012 167.612 37.3104 165.671 37.3488 163.311Z" fill="white"/>
<path d="M251.875 204.78C252.831 219.167 252.353 219.167 234.191 219.167C207.427 219.167 209.816 218.202 212.206 204.78C215.074 193.744 223.676 185.591 234.669 186.55C244.706 187.03 251.875 194.98 251.875 204.78Z" fill="white"/>
<path d="M124.539 77.6895L125.22 84.4315L115.386 85.4307L114.706 78.6887L124.539 77.6895Z" fill="black"/>
<path d="M124.539 77.6895L125.22 84.4315L115.386 85.4307L114.706 78.6887L124.539 77.6895Z" fill="black"/>
<path d="M96.7332 138.115L98.9338 144.349L89.806 148.665L86.9853 143.008L96.7332 138.115Z" fill="black"/>
<path d="M96.7332 138.115L98.9338 144.349L89.806 148.665L86.9853 143.008L96.7332 138.115Z" fill="black"/>
<rect width="5.69132" height="9.08544" transform="matrix(0.937529 0.347907 -0.345838 0.938294 244.024 131.401)" fill="black"/>
<path d="M159.632 188.469L168.713 192.305L166.801 198.54L157.243 194.703L159.632 188.469Z" fill="black"/>
<path d="M80.215 243.619L85.5743 245.668L82.2059 256.087L76.4706 253.477L80.215 243.619Z" fill="black"/>
<path d="M114.706 277.668L120.441 279.586L116.618 289.657L110.882 287.259L114.706 277.668Z" fill="black"/>
<path d="M253.616 264.154L261.263 256.567L265.565 261.362L257.61 268.556L253.616 264.154Z" fill="black"/>
<path d="M190.699 309.319L200.257 313.155L199.302 315.553L193.566 316.033L190.699 316.033L188.309 315.553L190.699 309.319Z" fill="black"/>
<path d="M166.324 25.8965L182.096 30.6921L181.618 58.0273L164.412 56.5886L166.324 25.8965Z" fill="#A16207"/>
<defs>
<linearGradient id="paint0_linear_432_529" x1="159" y1="317" x2="171.5" y2="94.0001" gradientUnits="userSpaceOnUse">
<stop stop-color="#BA7106"/>
<stop offset="1" stop-color="#F9D423"/>
</linearGradient>
</defs>
</svg>
