<svg width="565" height="164" viewBox="0 0 565 164" fill="none" xmlns="http://www.w3.org/2000/svg">
<g clip-path="url(#clip0_772_431)">
<path d="M111.396 51.5606C107.432 51.6074 103.519 52.4731 99.7926 54.4678C97.7487 55.5621 94.6612 58.4532 92.7595 60.9529C92.0592 61.8737 91.5695 62.7153 91.2892 63.32L133.781 65.686C133.542 64.2508 133.018 62.5374 132.213 60.9278C130.784 58.0691 128.575 55.5493 126.651 54.7809C121.673 52.7939 116.492 51.5005 111.396 51.5606ZM102.02 56.5932L102.211 58.6075L99.3081 58.9309L99.1171 56.9165L102.02 56.5932ZM87.6985 66.0601C84.7352 66.9928 83.63 69.1719 82.7304 71.5778C82.0765 73.3272 80.9853 76.9729 81.7176 76.9729C84.2809 77.4633 86.4779 77.1807 89.1954 77.1696C94.6674 77.1473 101.766 77.2245 109.016 77.4182C116.266 77.6119 123.666 77.9213 129.748 78.3667C133.602 78.649 136.845 78.9433 139.313 79.3537C139.161 77.7787 139.105 76.2911 138.849 74.9383C138.434 72.738 137.652 70.8549 135.081 68.9267L87.6985 66.0601ZM132.263 70.1572L134.004 70.8881L132.951 73.8389L131.21 73.108L132.263 70.1572ZM94.7525 72.1736L95.5152 74.0212L92.8517 75.3143L92.0892 73.4654L94.7525 72.1736ZM91.3195 80.3298C90.5915 80.3295 89.886 80.3309 89.2064 80.3337C86.4877 80.3448 84.1778 80.3808 82.475 80.4387C81.6236 80.4677 80.9231 80.5021 80.4107 80.5403C79.9076 80.5777 79.5087 80.6549 79.5959 80.6281L79.5931 80.6288C79.0334 80.7885 78.5057 81.277 78.0628 82.1611C77.6199 83.0453 77.5001 83.9578 77.4456 85.1881C77.3911 86.4184 77.4032 87.9612 77.7684 88.8466C78.117 89.6918 78.5581 90.1713 79.1198 90.3893C93.6991 92.3441 109.64 93.225 122.668 93.4036C123.389 88.3991 125.598 83.8713 129.659 84.1606C135.374 84.5677 134.749 89.144 134.726 93.3579C138.078 93.277 140.994 93.1387 143.329 92.9532L143.337 92.9525L143.113 92.9701C142.273 93.6408 143.793 92.9242 143.113 92.9701C143.423 92.1933 143.898 89.7007 143.745 88.3761C143.592 87.0516 143.423 85.796 142.869 84.8203C142.315 83.8445 141.351 83.6104 141.404 83.4715L139.313 82.7358C137.743 82.368 135.565 81.9641 129.551 81.5236C123.537 81.0831 116.167 80.774 108.944 80.5812C102.624 80.4125 96.4156 80.3323 91.3195 80.3298ZM110.667 84.962L113.376 86.1364L112.683 88.0166L109.974 86.842L110.667 84.962ZM80.6409 93.7761C80.2644 95.302 80.3066 97.0076 80.7522 98.5135C81.3896 100.667 82.7267 102.287 84.6219 102.729C104.038 105.933 122.605 106.757 140.556 105.822C141.761 103.79 142.408 101.365 142.312 99.361C142.25 98.0685 141.96 97.0257 141.391 96.256C128.381 97.041 103.252 96.6488 80.6409 93.7761ZM90.3778 98.9862L92.1188 99.7173L91.0658 102.668L89.3241 101.937L90.3778 98.9862ZM136.711 102.366L137.973 103.859L135.822 105.997L134.56 104.505L136.711 102.366ZM87.4104 106.368C87.7648 107.107 88.0873 107.824 88.4268 108.484C89.3403 110.257 90.293 111.659 92.4599 112.719C101.121 116.954 108.783 118.447 118.357 117.959L117.864 117.746L118.557 115.865L121.266 117.04L120.993 117.78C121.843 117.708 122.706 117.624 123.589 117.525C126.445 117.205 129.185 115.476 131.25 113.378C132.58 112.027 133.559 110.512 134.169 109.282L133.878 109.259C122.864 109.553 111.608 109.17 100.067 107.981L100.925 108.342L99.8722 111.292L98.1305 110.562L99.0881 107.881C95.1863 107.464 91.2929 106.96 87.4104 106.368Z" fill="url(#paint0_linear_772_431)"/>
<rect width="44.9191" height="2.48559" rx="1.24279" transform="matrix(0.998787 0.0492488 -0.0488035 0.998808 90.1394 63.7388)" fill="white"/>
<path d="M83.8119 104.836C83.5717 103.952 84.3143 103.11 85.2222 103.238L97.2191 104.929L104.787 105.787L111.622 106.278L119.19 106.646L126.513 106.646L138.765 106.264C139.734 106.234 140.279 107.366 139.652 108.105C139.447 108.347 139.148 108.49 138.831 108.498L125.659 108.853L118.946 108.853L111.622 108.485L104.787 108.117L97.9515 107.381L84.8886 105.77C84.3735 105.706 83.9479 105.337 83.8119 104.836Z" fill="white"/>
<path d="M79.3335 92.019C79.3684 91.3051 79.9998 90.7698 80.7098 90.8521L95.2963 92.5424L111.866 93.648L120.044 93.8936L127.978 93.8936L142.864 93.6632C143.404 93.6548 143.846 94.0899 143.846 94.6294C143.846 95.335 143.331 95.935 142.634 96.0428L142.259 96.1008L126.635 96.346L119.068 96.2233L110.89 95.9781L95.2963 94.8746L80.4391 93.3091C79.7868 93.2404 79.3015 92.6741 79.3335 92.019Z" fill="white"/>
<path d="M79.5384 78.7554C79.5482 78.158 80.0379 77.6804 80.6353 77.6855L109.794 77.9375L125.058 78.4361L128.842 78.6833L132.501 79.0531L138.837 79.7744C139.377 79.8359 139.786 80.293 139.786 80.8369C139.786 81.4628 139.251 81.9553 138.628 81.9033L132.376 81.3828L125.059 80.7658L109.795 80.1446L80.6156 79.861C80.0121 79.8551 79.5286 79.3589 79.5384 78.7554Z" fill="white"/>
<path d="M101.805 56.8638L101.979 58.5876L99.4679 58.8431L99.2941 57.1193L101.805 56.8638Z" fill="black"/>
<path d="M101.805 56.8638L101.979 58.5876L99.4679 58.8431L99.2941 57.1193L101.805 56.8638Z" fill="black"/>
<path d="M94.7041 72.3135L95.2661 73.9075L92.935 75.011L92.2147 73.5648L94.7041 72.3135Z" fill="black"/>
<path d="M94.7041 72.3135L95.2661 73.9075L92.935 75.011L92.2147 73.5648L94.7041 72.3135Z" fill="black"/>
<rect width="1.45368" height="2.32266" transform="matrix(0.937397 0.348262 -0.345484 0.938425 132.32 70.5967)" fill="black"/>
<path d="M110.768 85.188L113.087 86.1689L112.598 87.7629L110.157 86.782L110.768 85.188Z" fill="black"/>
<path d="M90.4856 99.2891L91.8543 99.813L90.994 102.477L89.5293 101.81L90.4856 99.2891Z" fill="black"/>
<path d="M99.2941 107.994L100.759 108.485L99.7823 111.06L98.3176 110.447L99.2941 107.994Z" fill="black"/>
<path d="M134.77 104.539L136.723 102.599L137.821 103.825L135.79 105.665L134.77 104.539Z" fill="black"/>
<path d="M118.701 116.087L121.143 117.068L120.899 117.681L119.434 117.804L118.701 117.804L118.091 117.681L118.701 116.087Z" fill="black"/>
<path d="M112.477 43.6211L116.504 44.8473L116.382 51.8364L111.988 51.4685L112.477 43.6211Z" fill="#A16207"/>
</g>
<path d="M65.527 94.1C66.3936 94.3667 66.827 94.9333 66.827 95.8V96.1C68.4936 100.7 69.327 105.867 69.327 111.6C66.6603 114.4 63.127 116.433 58.727 117.7C54.3936 118.967 48.727 119.6 41.727 119.6C30.2603 119.6 20.8936 116.567 13.627 110.5C5.96029 104.1 2.12695 95.2 2.12695 83.8C2.12695 77.4 3.02695 72.0333 4.82695 67.7C6.69362 63.3 9.62695 59.5667 13.627 56.5C15.9603 54.7 18.827 53.1333 22.227 51.8C25.6936 50.4667 29.4603 49.4333 33.527 48.7C37.5936 47.9667 41.6936 47.6 45.827 47.6C46.8936 47.6 47.7936 47.6667 48.527 47.8C49.2603 47.8667 50.127 47.9667 51.127 48.1C52.1936 48.2333 53.6936 48.4333 55.627 48.7C56.027 48.7 56.427 48.7667 56.827 48.9C57.227 48.9667 57.6603 49.0333 58.127 49.1L61.427 49.6C61.9603 49.6667 62.5936 49.8 63.327 50C64.0603 50.2 64.6603 50.3 65.127 50.3C65.1936 50.3 65.2603 50.3333 65.327 50.4C65.3936 50.4 65.4936 50.4333 65.627 50.5C65.6936 50.5667 65.7603 50.6667 65.827 50.8C65.8936 50.9333 65.9603 51.0333 66.027 51.1C66.4936 51.3667 66.7603 51.5 66.827 51.5H67.127L67.327 53.5C67.3936 54.0333 67.427 54.5667 67.427 55.1C67.427 55.6333 67.4603 56.1667 67.527 56.7C67.5936 57.3667 67.627 58.2667 67.627 59.4C67.6936 60.5333 67.727 61.7667 67.727 63.1C67.727 64.9 67.5603 66.2667 67.227 67.2C66.9603 68.0667 66.4603 68.7667 65.727 69.3L57.327 68.1H55.927C55.2603 68.1 54.827 68.1 54.627 68.1C54.4936 68.0333 54.327 68 54.127 68C53.927 67.9333 53.427 67.9333 52.627 68L52.527 68.1C47.4603 68.1 43.427 69.5333 40.427 72.4C37.4936 75.2667 36.027 79.1333 36.027 84C36.027 88.6667 37.427 92.3 40.227 94.9C43.0936 97.5 46.7603 98.5333 51.227 98L55.527 97.5C56.7936 97.3667 58.127 97.1333 59.527 96.8C60.9936 96.4667 62.9936 95.5667 65.527 94.1ZM182.874 117.1L154.374 116.9C153.24 116.9 152.507 116.167 152.174 114.7C151.84 113.5 151.674 112.167 151.674 110.7C151.674 108.433 151.64 106.067 151.574 103.6C151.574 101.133 151.54 98.3333 151.474 95.2C151.407 91.9333 151.34 88.6 151.274 85.2C151.207 81.7333 151.174 78.1667 151.174 74.5V52.5C151.174 51.9 151.44 51.3333 151.974 50.8C152.574 50.2 153.174 49.9 153.774 49.9L165.374 50C166.107 50.0667 166.974 50.1 167.974 50.1C168.974 50.1 170.874 50.1 173.674 50.1C176.207 50.1 178.44 50.1 180.374 50.1C182.307 50.1 183.974 50.0667 185.374 50L189.074 49.9C191.14 49.8333 192.974 49.8 194.574 49.8C196.24 49.7333 197.674 49.7 198.874 49.7C203.807 49.7 208.274 50.7 212.274 52.7C216.274 54.6333 219.44 57.4 221.774 61C225.04 66.0667 226.674 72.3 226.674 79.7C226.674 86.7 225.874 92.5667 224.274 97.3C222.674 101.967 220.207 105.767 216.874 108.7C213.474 111.633 209.04 113.8 203.574 115.2C198.107 116.533 191.207 117.167 182.874 117.1ZM183.774 88.4L183.074 105.5C183.407 105.567 183.94 105.6 184.674 105.6C185.074 105.6 185.507 105.6 185.974 105.6C186.507 105.533 187.107 105.467 187.774 105.4C187.974 105.333 188.14 105.3 188.274 105.3C188.474 105.233 188.674 105.167 188.874 105.1C188.94 105.033 189.04 105 189.174 105C189.374 105 189.507 104.967 189.574 104.9C190.64 103.967 191.607 102.3 192.474 99.9C193.34 97.5 194.24 94 195.174 89.4C195.44 87.7333 195.607 86.0667 195.674 84.4C195.807 82.7333 195.874 81.0667 195.874 79.4V77.5C195.874 75.5667 195.707 73.5667 195.374 71.5C195.04 69.4333 194.607 67.5667 194.074 65.9C193.54 64.2333 192.974 63.0667 192.374 62.4C191.307 61.4667 190.374 61 189.574 61C188.707 61 187.94 61.0667 187.274 61.2C186.607 61.3333 186.14 61.4333 185.874 61.5C185.807 61.5667 185.407 61.7333 184.674 62L184.574 74C184.574 74.5333 184.507 75.2 184.374 76C184.307 76.8 184.24 77.7333 184.174 78.8L184.074 81.2C184.007 84.4667 183.907 86.8667 183.774 88.4ZM255.643 117.4H239.843C239.109 117.4 238.609 117.367 238.343 117.3C238.009 117.233 237.643 117.167 237.243 117.1C236.843 117.1 236.409 117.067 235.943 117L233.843 116.5C233.509 116.5 233.243 116.4 233.043 116.2C233.043 116.067 233.043 116 233.043 116C233.043 114.267 232.943 112 232.743 109.2C232.743 108.133 232.676 107.233 232.543 106.5C232.476 105.767 232.409 105.1 232.343 104.5L232.143 100.3C232.076 99.7 232.043 99.0333 232.043 98.3C232.109 97.5667 232.109 96.7333 232.043 95.8L231.843 92.8C231.776 91.5333 231.743 90.4 231.743 89.4C231.809 88.4 231.809 87.5667 231.743 86.9C231.743 86.5667 231.709 86.1667 231.643 85.7C231.643 85.1667 231.643 84.3333 231.643 83.2C231.643 82 231.643 80.2667 231.643 78C231.643 71.6667 231.676 66.5667 231.743 62.7C231.876 58.7667 232.076 55.3333 232.343 52.4C232.343 51.7333 233.176 51.1333 234.843 50.6C235.509 50.5333 236.276 50.5 237.143 50.5C238.076 50.4333 238.943 50.4 239.743 50.4C242.476 50.4 244.809 50.4 246.743 50.4C248.743 50.3333 250.376 50.2333 251.643 50.1C255.576 50.0333 259.009 50 261.943 50C264.876 49.9333 267.376 49.9 269.443 49.9H273.843C276.643 49.9 279.076 49.9667 281.143 50.1C283.209 50.2333 284.976 50.3667 286.443 50.5C287.443 50.5 288.209 51.7333 288.743 54.2C288.876 54.4667 288.976 54.8667 289.043 55.4C289.109 55.9333 289.243 56.7667 289.443 57.9C289.576 59.3667 289.709 60.5 289.843 61.3C289.976 62.1 290.109 62.8667 290.243 63.6C290.309 63.7333 290.343 64.1 290.343 64.7C290.276 64.7667 290.243 65.0333 290.243 65.5C290.176 66.1 289.809 66.4 289.143 66.4C289.009 66.3333 288.643 66.3 288.043 66.3C286.576 66.3 284.976 66.4 283.243 66.6C281.576 66.7333 279.676 66.8667 277.543 67L272.343 67.4L267.143 67.9C266.943 67.9 266.676 68.2667 266.343 69C266.143 69.4667 265.943 69.8 265.743 70C265.543 70.1333 265.409 70.5 265.343 71.1L265.143 74.5C265.076 75.3667 265.176 75.9333 265.443 76.2C265.709 76.4667 266.209 76.6 266.943 76.6H275.843C278.376 76.6 281.343 76.8 284.743 77.2H285.743C287.009 77.2 287.776 77.9333 288.043 79.4L288.243 89.3V89.6C288.243 90.8 287.109 91.4667 284.843 91.6C284.243 91.8 283.343 91.9333 282.143 92C280.943 92.0667 279.109 92.1 276.643 92.1C274.176 92.1 272.543 92.1 271.743 92.1C271.009 92.1 270.476 92.0667 270.143 92C268.743 92 267.843 92 267.443 92C267.043 92 266.776 92.0333 266.643 92.1C265.976 92.2333 265.509 92.4 265.243 92.6C265.043 92.7333 264.943 93.1667 264.943 93.9C264.943 94.5667 264.909 95.8333 264.843 97.7C264.776 97.9667 264.709 98.3333 264.643 98.8C264.643 99.2 264.643 100.133 264.643 101.6C268.643 101.6 271.776 101.567 274.043 101.5C276.309 101.433 278.076 101.367 279.343 101.3C281.276 101.233 283.009 101.2 284.543 101.2C286.143 101.133 287.576 101.1 288.843 101.1C289.043 101.1 289.309 101.333 289.643 101.8C289.909 102.267 290.276 103.467 290.743 105.4C291.209 107.333 291.776 109.967 292.443 113.3C292.576 113.633 292.643 114.133 292.643 114.8C292.643 116.2 292.009 116.9 290.743 116.9C288.609 116.9 286.243 117 283.643 117.2C283.176 117.267 282.509 117.3 281.643 117.3C280.843 117.3 279.143 117.3 276.543 117.3C274.209 117.3 271.609 117.3 268.743 117.3C265.943 117.3 263.343 117.3 260.943 117.3C258.609 117.367 256.843 117.4 255.643 117.4ZM316.896 117.5C312.696 117.5 309.262 117.433 306.596 117.3C303.996 117.167 301.496 116.767 299.096 116.1C298.829 116.1 298.562 115.767 298.296 115.1C298.096 114.367 297.996 113.833 297.996 113.5L296.096 78.3V76.2C296.096 75.9333 296.096 75.6 296.096 75.2C296.096 74.7333 296.129 74.2667 296.196 73.8C296.262 73.1333 296.296 72.4333 296.296 71.7C296.296 70.9 296.296 69.9667 296.296 68.9L296.496 63.7V60.7C296.496 59.7 296.496 58.7333 296.496 57.8C296.562 56.8 296.629 55.8667 296.696 55C296.696 54.2667 296.762 53.8 296.896 53.6V53.3C296.962 53.2333 297.062 53.1333 297.196 53C297.329 52.8667 297.496 52.7333 297.696 52.6C298.096 52.3333 298.396 52.1 298.596 51.9C299.196 51.3 300.162 51 301.496 51H308.896C309.229 51.0667 309.696 51.1 310.296 51.1C310.962 51.1 311.729 51.1 312.596 51.1C313.529 51.1 314.396 51.1 315.196 51.1C316.062 51.1 316.729 51.1333 317.196 51.2H327.096C328.829 51.2 330.029 51.5 330.696 52.1C331.429 52.6333 331.796 53.7667 331.796 55.5V56.5C331.796 56.7667 331.762 57.0333 331.696 57.3C331.629 57.5667 331.596 57.8333 331.596 58.1L331.396 59.6V60.9C331.396 61.2333 331.429 61.5 331.496 61.7C331.562 61.9 331.596 62.2667 331.596 62.8C331.596 63.6667 331.596 64.4333 331.596 65.1C331.596 65.7 331.562 66.2 331.496 66.6L331.396 70.7H334.096C334.896 70.9 335.862 71.0333 336.996 71.1C338.129 71.1667 338.996 71.2 339.596 71.2C339.929 71.2667 340.296 71.3333 340.696 71.4C341.162 71.4 341.696 71.4 342.296 71.4L342.396 64.6C342.462 64.2667 342.496 63.9 342.496 63.5C342.496 63.0333 342.496 62.5333 342.496 62L342.596 57.9V57C342.596 56.0667 342.629 55.2 342.696 54.4C342.762 53.5333 342.862 52.9 342.996 52.5C343.596 51.9 344.096 51.6 344.496 51.6C344.696 51.5333 344.996 51.5 345.396 51.5C345.862 51.4333 346.529 51.4 347.396 51.4H349.996C350.929 51.4 351.796 51.4 352.596 51.4C353.396 51.3333 354.129 51.2667 354.796 51.2H360.496C363.162 51.2 365.362 51.2 367.096 51.2C368.896 51.1333 370.229 51.0667 371.096 51H373.796C375.396 51 376.429 51.1667 376.896 51.5C377.629 51.9667 377.996 53.1333 377.996 55C377.996 56.2667 377.962 57.7667 377.896 59.5C377.896 61.2333 377.862 63.2333 377.796 65.5C377.596 69.7 377.496 73.1 377.496 75.7C377.496 76.1 377.529 76.4333 377.596 76.7C377.662 76.9667 377.729 77.1667 377.796 77.3V77.7L375.296 114.7C375.296 114.967 375.029 115.4 374.496 116C373.962 116.6 373.462 116.9 372.996 116.9H345.496C345.429 116.9 345.329 116.833 345.196 116.7C345.129 116.567 345.029 116.467 344.896 116.4C344.696 116 344.562 115.6 344.496 115.2C344.429 114.8 344.329 114.3 344.196 113.7L343.896 111.6L342.796 93.1H342.096C341.162 93.1 340.329 93.1 339.596 93.1C338.929 93.1 338.296 93.0667 337.696 93C336.496 92.9333 335.496 92.9 334.696 92.9C333.962 92.8333 333.429 92.8 333.096 92.8H332.196C331.662 92.8 331.396 93.3667 331.396 94.5V110.2C331.396 110.6 331.362 111.3 331.296 112.3C331.229 113.233 331.062 114.167 330.796 115.1C330.529 116.033 330.029 116.633 329.296 116.9L327.696 117C325.096 117.133 322.896 117.233 321.096 117.3C319.362 117.367 317.962 117.433 316.896 117.5ZM391.286 118.9L388.686 119.3C387.753 119.3 387.053 118.8 386.586 117.8C386.186 116.867 385.92 115.833 385.786 114.7C385.72 113.5 385.686 112.6 385.686 112C385.686 110.733 385.653 110 385.586 109.8C385.52 108.667 385.453 107.233 385.386 105.5C385.32 103.7 385.186 101.6 384.986 99.2L384.586 94.8C384.32 91.3333 384.153 88.4 384.086 86C384.02 83.5333 383.986 81.4667 383.986 79.8V51.9C383.986 51.2333 384.52 50.8 385.586 50.6C386.653 50.3333 387.886 50.2 389.286 50.2C389.686 50.2 390.153 50.2 390.686 50.2C391.22 50.2 391.753 50.2333 392.286 50.3C392.82 50.3667 393.286 50.4333 393.686 50.5C394.086 50.5 394.42 50.5 394.686 50.5C395.22 50.5667 395.953 50.6333 396.886 50.7C397.82 50.7 398.886 50.7 400.086 50.7L400.486 50.4H405.486C405.82 50.6 406.12 50.7 406.386 50.7H406.786C406.92 50.5667 407.353 50.5 408.086 50.5C408.153 50.4333 408.22 50.4 408.286 50.4H408.486C408.753 50.4 409.02 50.4333 409.286 50.5L409.986 50.7H416.086C417.02 50.7 417.653 50.9333 417.986 51.4C418.32 51.8 418.486 52.1667 418.486 52.5L418.786 70.6C418.786 70.8 418.753 71 418.686 71.2L418.386 72.9C418.12 74.3 417.986 75.5667 417.986 76.7C417.986 77.7667 417.986 78.7 417.986 79.5V101.9L417.686 106.2C417.62 107.2 417.553 108.1 417.486 108.9C417.42 109.7 417.42 110.4 417.486 111C417.486 114 417.12 116 416.386 117C415.986 117.6 415.32 117.9 414.386 117.9L414.286 117.7L413.786 117.6C413.653 117.6 413.586 117.633 413.586 117.7H413.086C412.886 117.767 412.72 117.833 412.586 117.9C412.453 117.967 412.353 118.033 412.286 118.1C412.086 118.1 411.753 118.067 411.286 118C410.82 117.933 410.253 117.833 409.586 117.7L407.986 117.6C407.653 117.6 407.453 117.767 407.386 118.1H397.086L394.086 118.6L391.286 118.9ZM448.807 118.6C448.34 118.6 447.873 118.533 447.407 118.4C447.007 118.333 446.54 118.267 446.007 118.2C445.54 118.133 445.073 118.067 444.607 118C444.14 117.933 443.707 117.9 443.307 117.9C443.173 117.9 443.107 117.933 443.107 118H442.507C441.84 117.6 441.507 117.267 441.507 117L434.407 95.9C433.673 93.7 432.807 90.9667 431.807 87.7C430.807 84.4333 429.64 80.9333 428.307 77.2C426.973 73.4 425.407 69.6667 423.607 66C423.54 65.8667 423.507 65.5667 423.507 65.1L423.207 63.8C423.073 63.2 422.973 62.7667 422.907 62.5C422.84 62.2333 422.807 61.8 422.807 61.2C422.807 60.6667 422.673 60.0333 422.407 59.3C422.207 58.5 422.207 57.7333 422.407 57C422.607 56.2 423.34 55.5667 424.607 55.1L426.907 54.1L435.007 52.3C435.073 52.3 435.207 52.3 435.407 52.3C435.607 52.2333 435.74 52.2333 435.807 52.3C435.94 52.3667 436.007 52.3 436.007 52.1C436.073 51.8333 436.14 51.7 436.207 51.7C436.207 51.7 436.24 51.7333 436.307 51.8C436.373 51.8 436.44 51.7667 436.507 51.7C436.573 51.6333 436.64 51.6 436.707 51.6C436.907 51.5333 437.04 51.5 437.107 51.5C437.24 51.5 437.407 51.4667 437.607 51.4L438.207 51.1L440.207 51L446.507 49.8C447.973 49.3333 449.107 49.4 449.907 50C450.773 50.5333 451.407 51.2667 451.807 52.2C452.273 53.1333 452.607 53.9333 452.807 54.6L454.507 59.1C454.707 59.5667 455.04 60.6 455.507 62.2C456.04 63.7333 456.573 65.3667 457.107 67.1C457.707 68.7667 458.107 70.0667 458.307 71L458.407 71.4C458.407 71.8 458.44 72.1333 458.507 72.4C458.84 72.6667 459.107 73.1 459.307 73.7C459.573 74.2333 459.74 74.6667 459.807 75L460.407 77.1L461.707 80L463.707 86.1L464.307 87.6L465.307 89.3C465.307 89.1667 465.473 88.8 465.807 88.2C466.14 87.6 466.473 86.9667 466.807 86.3C467.14 85.6333 467.307 85.2333 467.307 85.1L468.507 80.4L469.507 76.8C469.64 76.4667 469.707 76.1333 469.707 75.8C469.773 75.4 469.84 75.0667 469.907 74.8L470.207 73.2L470.507 71.7C470.64 71.0333 470.873 70.4333 471.207 69.9C471.607 69.3 471.94 68.3667 472.207 67.1C473.74 61.0333 474.873 56.5 475.607 53.5C476.34 50.5 477.473 49.2 479.007 49.6L483.307 49.8L490.907 50.6C491.24 50.6 491.607 50.7333 492.007 51C492.473 51.2667 492.84 51.3667 493.107 51.3L496.207 51.6C497.14 51.6667 498.073 52.2 499.007 53.2C499.94 54.2 500.14 55.3 499.607 56.5C499.607 56.8333 499.573 57.3 499.507 57.9C499.44 58.4333 499.307 59.3 499.107 60.5C499.04 60.7667 498.94 61.0333 498.807 61.3C498.673 61.5667 498.607 61.7667 498.607 61.9C498.54 62.1 498.507 62.2667 498.507 62.4C498.507 62.5333 498.473 62.6333 498.407 62.7C497.74 64.8333 496.94 67.5333 496.007 70.8C495.073 74.0667 494.107 77.5 493.107 81.1C492.107 84.7 491.207 88.0667 490.407 91.2C489.607 94.2667 488.94 96.6667 488.407 98.4L483.207 117C483.207 117.2 482.873 117.533 482.207 118H481.907L481.507 117.9C481.24 117.9 480.973 117.9 480.707 117.9C480.507 117.9 480.307 118 480.107 118.2C479.84 118.467 479.44 118.6 478.907 118.6C477.907 118.6 477.007 118.467 476.207 118.2C475.673 118.133 475.173 118.067 474.707 118C474.307 118 473.94 118 473.607 118C471.473 118.133 468.84 118.233 465.707 118.3C462.573 118.433 459.473 118.5 456.407 118.5C453.34 118.567 450.807 118.6 448.807 118.6ZM527.42 117.4H511.62C510.887 117.4 510.387 117.367 510.12 117.3C509.787 117.233 509.42 117.167 509.02 117.1C508.62 117.1 508.187 117.067 507.72 117L505.62 116.5C505.287 116.5 505.02 116.4 504.82 116.2C504.82 116.067 504.82 116 504.82 116C504.82 114.267 504.72 112 504.52 109.2C504.52 108.133 504.453 107.233 504.32 106.5C504.253 105.767 504.187 105.1 504.12 104.5L503.92 100.3C503.853 99.7 503.82 99.0333 503.82 98.3C503.887 97.5667 503.887 96.7333 503.82 95.8L503.62 92.8C503.553 91.5333 503.52 90.4 503.52 89.4C503.587 88.4 503.587 87.5667 503.52 86.9C503.52 86.5667 503.487 86.1667 503.42 85.7C503.42 85.1667 503.42 84.3333 503.42 83.2C503.42 82 503.42 80.2667 503.42 78C503.42 71.6667 503.453 66.5667 503.52 62.7C503.653 58.7667 503.853 55.3333 504.12 52.4C504.12 51.7333 504.953 51.1333 506.62 50.6C507.287 50.5333 508.053 50.5 508.92 50.5C509.853 50.4333 510.72 50.4 511.52 50.4C514.253 50.4 516.587 50.4 518.52 50.4C520.52 50.3333 522.153 50.2333 523.42 50.1C527.353 50.0333 530.787 50 533.72 50C536.653 49.9333 539.153 49.9 541.22 49.9H545.62C548.42 49.9 550.853 49.9667 552.92 50.1C554.987 50.2333 556.753 50.3667 558.22 50.5C559.22 50.5 559.987 51.7333 560.52 54.2C560.653 54.4667 560.753 54.8667 560.82 55.4C560.887 55.9333 561.02 56.7667 561.22 57.9C561.353 59.3667 561.487 60.5 561.62 61.3C561.753 62.1 561.887 62.8667 562.02 63.6C562.087 63.7333 562.12 64.1 562.12 64.7C562.053 64.7667 562.02 65.0333 562.02 65.5C561.953 66.1 561.587 66.4 560.92 66.4C560.787 66.3333 560.42 66.3 559.82 66.3C558.353 66.3 556.753 66.4 555.02 66.6C553.353 66.7333 551.453 66.8667 549.32 67L544.12 67.4L538.92 67.9C538.72 67.9 538.453 68.2667 538.12 69C537.92 69.4667 537.72 69.8 537.52 70C537.32 70.1333 537.187 70.5 537.12 71.1L536.92 74.5C536.853 75.3667 536.953 75.9333 537.22 76.2C537.487 76.4667 537.987 76.6 538.72 76.6H547.62C550.153 76.6 553.12 76.8 556.52 77.2H557.52C558.787 77.2 559.553 77.9333 559.82 79.4L560.02 89.3V89.6C560.02 90.8 558.887 91.4667 556.62 91.6C556.02 91.8 555.12 91.9333 553.92 92C552.72 92.0667 550.887 92.1 548.42 92.1C545.953 92.1 544.32 92.1 543.52 92.1C542.787 92.1 542.253 92.0667 541.92 92C540.52 92 539.62 92 539.22 92C538.82 92 538.553 92.0333 538.42 92.1C537.753 92.2333 537.287 92.4 537.02 92.6C536.82 92.7333 536.72 93.1667 536.72 93.9C536.72 94.5667 536.687 95.8333 536.62 97.7C536.553 97.9667 536.487 98.3333 536.42 98.8C536.42 99.2 536.42 100.133 536.42 101.6C540.42 101.6 543.553 101.567 545.82 101.5C548.087 101.433 549.853 101.367 551.12 101.3C553.053 101.233 554.787 101.2 556.32 101.2C557.92 101.133 559.353 101.1 560.62 101.1C560.82 101.1 561.087 101.333 561.42 101.8C561.687 102.267 562.053 103.467 562.52 105.4C562.987 107.333 563.553 109.967 564.22 113.3C564.353 113.633 564.42 114.133 564.42 114.8C564.42 116.2 563.787 116.9 562.52 116.9C560.387 116.9 558.02 117 555.42 117.2C554.953 117.267 554.287 117.3 553.42 117.3C552.62 117.3 550.92 117.3 548.32 117.3C545.987 117.3 543.387 117.3 540.52 117.3C537.72 117.3 535.12 117.3 532.72 117.3C530.387 117.367 528.62 117.4 527.42 117.4Z" fill="black"/>
<defs>
<linearGradient id="paint0_linear_772_431" x1="110.606" y1="118.051" x2="113.806" y2="61.0346" gradientUnits="userSpaceOnUse">
<stop stop-color="#BA7106"/>
<stop offset="1" stop-color="#F9D423"/>
</linearGradient>
<clipPath id="clip0_772_431">
<rect width="83" height="90" fill="white" transform="translate(70 37)"/>
</clipPath>
</defs>
</svg>
