<svg width="790" height="193" viewBox="0 0 790 193" fill="none" xmlns="http://www.w3.org/2000/svg">
<path d="M91.832 16.4258L86.9102 53.5156C85.2109 53.0469 83.5117 52.7246 81.8125 52.5488C80.1133 52.373 78.4141 52.2852 76.7148 52.2852C72.3789 52.2852 68.248 52.8711 64.3223 54.043C60.3965 55.1562 56.9102 56.8848 53.8633 59.2285C50.875 61.5723 48.4727 64.502 46.6562 68.0176C44.8984 71.5332 44.0195 75.6641 44.0195 80.4102C44.0195 83.457 44.4883 86.0938 45.4258 88.3203C46.4219 90.5469 47.7988 92.3926 49.5566 93.8574C51.3145 95.3223 53.3945 96.4062 55.7969 97.1094C58.1992 97.8125 60.8359 98.1641 63.707 98.1641C65.875 98.1641 68.1309 97.9297 70.4746 97.4609C72.8184 96.9922 75.1328 96.377 77.418 95.6152C79.7031 94.8535 81.9297 93.9746 84.0977 92.9785C86.2656 91.9824 88.2578 90.957 90.0742 89.9023L86.5586 131.211C84.2734 132.383 81.7832 133.438 79.0879 134.375C76.4512 135.254 73.7266 136.045 70.9141 136.748C68.1016 137.393 65.2891 137.891 62.4766 138.242C59.6641 138.594 56.9688 138.77 54.3906 138.77C46.9492 138.77 40.0059 137.393 33.5605 134.639C27.1152 131.885 21.5195 128.105 16.7734 123.301C12.0273 118.496 8.27734 112.842 5.52344 106.338C2.82812 99.7754 1.48047 92.7148 1.48047 85.1562C1.48047 75.1367 2.91602 65.7031 5.78711 56.8555C8.6582 47.9492 12.877 40.1562 18.4434 33.4766C24.0098 26.7969 30.8945 21.5234 39.0977 17.6562C47.3594 13.7891 56.8516 11.8555 67.5742 11.8555C71.6172 11.8555 75.748 12.1777 79.9668 12.8223C84.2441 13.4668 88.1992 14.668 91.832 16.4258ZM337.574 70.2148C337.574 78.418 336.52 85.8301 334.41 92.4512C332.301 99.0137 329.342 104.873 325.533 110.029C321.783 115.127 317.301 119.521 312.086 123.213C306.871 126.904 301.158 129.951 294.947 132.354C288.736 134.697 282.115 136.455 275.084 137.627C268.111 138.74 260.934 139.297 253.551 139.297C250.797 139.297 248.102 139.238 245.465 139.121C242.828 138.945 240.133 138.711 237.379 138.418L239.84 20.4688C246.285 18.418 252.906 16.9824 259.703 16.1621C266.559 15.2832 273.355 14.8438 280.094 14.8438C288.473 14.8438 296.178 16.1035 303.209 18.623C310.24 21.1426 316.305 24.7754 321.402 29.5215C326.5 34.2676 330.455 40.0684 333.268 46.9238C336.139 53.7793 337.574 61.543 337.574 70.2148ZM301.539 75.8398C301.598 72.6758 301.246 69.6289 300.484 66.6992C299.781 63.7695 298.58 61.1914 296.881 58.9648C295.24 56.6797 293.131 54.8633 290.553 53.5156C287.975 52.1094 284.898 51.3477 281.324 51.2305L277.809 105.723C281.324 105.195 284.518 104.053 287.389 102.295C290.26 100.479 292.721 98.2812 294.771 95.7031C296.881 93.0664 298.492 90.166 299.605 87.002C300.777 83.7793 301.422 80.4688 301.539 77.0703V75.8398ZM426.168 13.2617C425.816 18.7695 425.494 24.2188 425.201 29.6094C424.908 35 424.527 40.4492 424.059 45.957L386.793 47.8906L385.914 58.9648H412.105L410.172 86.2109L383.805 87.0898L382.926 99.9219H404.723H420.191C419.84 106.367 419.459 112.783 419.049 119.17C418.697 125.498 418.375 131.855 418.082 138.242L342.32 140L345.133 13.2617H426.168ZM533.57 140L489.625 142.109L489.273 101.504H469.059L467.828 140H428.453L431.793 16.4258L473.629 18.3594L470.992 81.4648H490.504L490.68 13.6133L530.758 14.668L533.57 140ZM589.381 16.25L579.713 135.957L542.623 137.891V18.7109L589.381 16.25ZM703.023 16.7773L670.855 139.121L627.262 141.582L587.711 18.0078L629.371 14.1406L646.246 86.2109L662.594 14.1406L703.023 16.7773ZM789.156 13.2617C788.805 18.7695 788.482 24.2188 788.189 29.6094C787.896 35 787.516 40.4492 787.047 45.957L749.781 47.8906L748.902 58.9648H775.094L773.16 86.2109L746.793 87.0898L745.914 99.9219H767.711H783.18C782.828 106.367 782.447 112.783 782.037 119.17C781.686 125.498 781.363 131.855 781.07 138.242L705.309 140L708.121 13.2617H789.156Z" fill="black"/>
<path d="M91.832 16.4258L86.9102 53.5156C85.2109 53.0469 83.5117 52.7246 81.8125 52.5488C80.1133 52.373 78.4141 52.2852 76.7148 52.2852C72.3789 52.2852 68.248 52.8711 64.3223 54.043C60.3965 55.1562 56.9102 56.8848 53.8633 59.2285C50.875 61.5723 48.4727 64.502 46.6562 68.0176C44.8984 71.5332 44.0195 75.6641 44.0195 80.4102C44.0195 83.457 44.4883 86.0938 45.4258 88.3203C46.4219 90.5469 47.7988 92.3926 49.5566 93.8574C51.3145 95.3223 53.3945 96.4062 55.7969 97.1094C58.1992 97.8125 60.8359 98.1641 63.707 98.1641C65.875 98.1641 68.1309 97.9297 70.4746 97.4609C72.8184 96.9922 75.1328 96.377 77.418 95.6152C79.7031 94.8535 81.9297 93.9746 84.0977 92.9785C86.2656 91.9824 88.2578 90.957 90.0742 89.9023L86.5586 131.211C84.2734 132.383 81.7832 133.438 79.0879 134.375C76.4512 135.254 73.7266 136.045 70.9141 136.748C68.1016 137.393 65.2891 137.891 62.4766 138.242C59.6641 138.594 56.9688 138.77 54.3906 138.77C46.9492 138.77 40.0059 137.393 33.5605 134.639C27.1152 131.885 21.5195 128.105 16.7734 123.301C12.0273 118.496 8.27734 112.842 5.52344 106.338C2.82812 99.7754 1.48047 92.7148 1.48047 85.1562C1.48047 75.1367 2.91602 65.7031 5.78711 56.8555C8.6582 47.9492 12.877 40.1562 18.4434 33.4766C24.0098 26.7969 30.8945 21.5234 39.0977 17.6562C47.3594 13.7891 56.8516 11.8555 67.5742 11.8555C71.6172 11.8555 75.748 12.1777 79.9668 12.8223C84.2441 13.4668 88.1992 14.668 91.832 16.4258ZM337.574 70.2148C337.574 78.418 336.52 85.8301 334.41 92.4512C332.301 99.0137 329.342 104.873 325.533 110.029C321.783 115.127 317.301 119.521 312.086 123.213C306.871 126.904 301.158 129.951 294.947 132.354C288.736 134.697 282.115 136.455 275.084 137.627C268.111 138.74 260.934 139.297 253.551 139.297C250.797 139.297 248.102 139.238 245.465 139.121C242.828 138.945 240.133 138.711 237.379 138.418L239.84 20.4688C246.285 18.418 252.906 16.9824 259.703 16.1621C266.559 15.2832 273.355 14.8438 280.094 14.8438C288.473 14.8438 296.178 16.1035 303.209 18.623C310.24 21.1426 316.305 24.7754 321.402 29.5215C326.5 34.2676 330.455 40.0684 333.268 46.9238C336.139 53.7793 337.574 61.543 337.574 70.2148ZM301.539 75.8398C301.598 72.6758 301.246 69.6289 300.484 66.6992C299.781 63.7695 298.58 61.1914 296.881 58.9648C295.24 56.6797 293.131 54.8633 290.553 53.5156C287.975 52.1094 284.898 51.3477 281.324 51.2305L277.809 105.723C281.324 105.195 284.518 104.053 287.389 102.295C290.26 100.479 292.721 98.2812 294.771 95.7031C296.881 93.0664 298.492 90.166 299.605 87.002C300.777 83.7793 301.422 80.4688 301.539 77.0703V75.8398ZM426.168 13.2617C425.816 18.7695 425.494 24.2188 425.201 29.6094C424.908 35 424.527 40.4492 424.059 45.957L386.793 47.8906L385.914 58.9648H412.105L410.172 86.2109L383.805 87.0898L382.926 99.9219H404.723H420.191C419.84 106.367 419.459 112.783 419.049 119.17C418.697 125.498 418.375 131.855 418.082 138.242L342.32 140L345.133 13.2617H426.168ZM533.57 140L489.625 142.109L489.273 101.504H469.059L467.828 140H428.453L431.793 16.4258L473.629 18.3594L470.992 81.4648H490.504L490.68 13.6133L530.758 14.668L533.57 140ZM589.381 16.25L579.713 135.957L542.623 137.891V18.7109L589.381 16.25ZM703.023 16.7773L670.855 139.121L627.262 141.582L587.711 18.0078L629.371 14.1406L646.246 86.2109L662.594 14.1406L703.023 16.7773ZM789.156 13.2617C788.805 18.7695 788.482 24.2188 788.189 29.6094C787.896 35 787.516 40.4492 787.047 45.957L749.781 47.8906L748.902 58.9648H775.094L773.16 86.2109L746.793 87.0898L745.914 99.9219H767.711H783.18C782.828 106.367 782.447 112.783 782.037 119.17C781.686 125.498 781.363 131.855 781.07 138.242L705.309 140L708.121 13.2617H789.156Z" fill="black"/>
<path d="M164.794 15.7974C156.961 15.8899 149.23 17.6021 141.867 21.5473C137.829 23.7115 131.728 29.4294 127.971 34.3734C126.587 36.1944 125.619 37.859 125.065 39.0549L209.026 43.7344C208.552 40.8958 207.517 37.5072 205.927 34.3237C203.104 28.6698 198.74 23.6861 194.937 22.1665C185.101 18.2366 174.864 15.6785 164.794 15.7974ZM146.268 25.7508L146.646 29.7346L140.91 30.3743L140.533 26.3902L146.268 25.7508ZM117.971 44.4742C112.115 46.3188 109.932 50.6286 108.154 55.387C106.862 58.8468 104.706 66.0573 106.153 66.0573C111.218 67.0273 115.559 66.4684 120.928 66.4464C131.74 66.4023 145.766 66.5549 160.092 66.938C174.418 67.3211 189.038 67.933 201.055 68.814C208.672 69.3723 215.08 69.9543 219.955 70.7661C219.655 67.6511 219.545 64.7088 219.04 62.0333C218.218 57.6817 216.675 53.9572 211.594 50.1438L117.971 44.4742ZM206.025 52.5774L209.466 54.0229L207.385 59.859L203.945 58.4135L206.025 52.5774ZM131.909 56.5653L133.416 60.2196L128.153 62.7769L126.646 59.1203L131.909 56.5653ZM125.125 72.6966C123.687 72.6959 122.293 72.6987 120.95 72.7042C115.578 72.7261 111.014 72.7974 107.649 72.9118C105.967 72.9692 104.583 73.0373 103.571 73.1127C102.577 73.1868 101.788 73.3394 101.961 73.2866L101.955 73.288C100.849 73.6036 99.8066 74.5698 98.9315 76.3185C98.0564 78.0672 97.8195 79.872 97.7119 82.3052C97.6043 84.7385 97.6281 87.7897 98.3498 89.5409C99.0385 91.2124 99.91 92.1608 101.02 92.5919C129.827 96.4582 161.326 98.2003 187.068 98.5535C188.492 88.6557 192.856 79.7008 200.882 80.2731C212.172 81.0782 210.937 90.1291 210.892 98.4631C217.516 98.3032 223.278 98.0296 227.892 97.6628L227.908 97.6614L227.465 97.6963C225.804 99.0226 228.809 97.6055 227.465 97.6963C228.076 96.16 229.015 91.23 228.713 88.6104C228.412 85.9908 228.077 83.5075 226.982 81.5777C225.888 79.6479 223.983 79.1847 224.088 78.9101L219.955 77.4551C216.853 76.7276 212.55 75.9288 200.667 75.0575C188.784 74.1863 174.221 73.5751 159.95 73.1937C147.463 72.86 135.195 72.7015 125.125 72.6966ZM163.354 81.858L168.708 84.1807L167.338 87.8992L161.984 85.5762L163.354 81.858ZM104.025 99.2902C103.282 102.308 103.365 105.682 104.245 108.66C105.505 112.919 108.147 116.123 111.892 116.996C150.256 123.334 186.942 124.963 222.411 123.115C224.792 119.095 226.071 114.299 225.882 110.336C225.76 107.78 225.185 105.717 224.062 104.195C198.356 105.748 148.702 104.972 104.025 99.2902ZM123.265 109.595L126.705 111.041L124.624 116.877L121.183 115.431L123.265 109.595ZM214.814 116.28L217.308 119.231L213.059 123.461L210.565 120.509L214.814 116.28ZM117.401 124.195C118.102 125.657 118.739 127.075 119.41 128.379C121.215 131.886 123.097 134.659 127.379 136.754C144.492 145.131 159.632 148.084 178.549 147.119L177.574 146.697L178.944 142.977L184.297 145.3L183.758 146.764C185.437 146.623 187.143 146.456 188.887 146.261C194.531 145.627 199.944 142.209 204.024 138.059C206.651 135.387 208.587 132.39 209.792 129.958L209.216 129.912C187.454 130.494 165.213 129.736 142.41 127.385L144.106 128.098L142.025 133.934L138.583 132.489L140.475 127.186C132.766 126.363 125.073 125.365 117.401 124.195Z" fill="url(#paint0_linear_550_2359)"/>
<rect width="88.756" height="4.91593" rx="2.45797" transform="matrix(0.998784 0.0492954 -0.0487574 0.998811 122.794 39.8833)" fill="white"/>
<path d="M110.291 121.165C109.816 119.415 111.285 117.751 113.08 118.004L136.782 121.349L151.735 123.046L165.241 124.016L180.194 124.744L194.665 124.744L218.871 123.989C220.786 123.929 221.866 126.169 220.627 127.629C220.22 128.108 219.63 128.391 219.002 128.408L192.977 129.109L179.712 129.109L165.241 128.382L151.735 127.654L138.23 126.199L112.42 123.012C111.401 122.886 110.56 122.156 110.291 121.165Z" fill="white"/>
<path d="M101.442 95.8158C101.511 94.4038 102.76 93.3451 104.164 93.508L132.983 96.8509L165.724 99.0374L181.882 99.5232L197.559 99.5232L226.971 99.0674C228.038 99.0509 228.912 99.9114 228.912 100.978C228.912 102.374 227.895 103.561 226.516 103.774L225.776 103.888L194.906 104.373L179.953 104.131L163.794 103.646L132.983 101.463L103.629 98.3674C102.339 98.2314 101.379 97.1114 101.442 95.8158Z" fill="white"/>
<path d="M101.847 69.5832C101.866 68.4017 102.835 67.457 104.016 67.4672L161.629 67.9656L191.789 68.9517L199.267 69.4407L206.496 70.172L219.014 71.5983C220.082 71.7201 220.89 72.6242 220.89 73.6997C220.891 74.9378 219.833 75.9117 218.599 75.8089L206.249 74.7796L191.792 73.5593L161.632 72.3307L103.977 71.7698C102.784 71.7581 101.828 70.7768 101.847 69.5832Z" fill="white"/>
<path d="M210.1 90.5537C210.582 97.8289 210.341 97.8289 201.176 97.8289C187.671 97.8289 188.876 97.3406 190.082 90.5537C191.529 84.9728 195.871 80.8502 201.418 81.3351C206.482 81.5776 210.1 85.5981 210.1 90.5537Z" fill="white"/>
<path d="M145.844 26.2861L146.188 29.6955L141.226 30.2008L140.882 26.7914L145.844 26.2861Z" fill="black"/>
<path d="M145.844 26.2861L146.188 29.6955L141.226 30.2008L140.882 26.7914L145.844 26.2861Z" fill="black"/>
<path d="M131.813 56.8418L132.923 59.9944L128.317 62.1769L126.894 59.3166L131.813 56.8418Z" fill="black"/>
<path d="M131.813 56.8418L132.923 59.9944L128.317 62.1769L126.894 59.3166L131.813 56.8418Z" fill="black"/>
<rect width="2.87266" height="4.59318" transform="matrix(0.937289 0.348553 -0.345195 0.938531 206.138 53.4468)" fill="black"/>
<path d="M163.553 82.3052L168.135 84.2452L167.171 87.3978L162.347 85.4578L163.553 82.3052Z" fill="black"/>
<path d="M123.478 110.193L126.182 111.23L124.482 116.499L121.588 115.179L123.478 110.193Z" fill="black"/>
<path d="M140.882 127.411L143.777 128.381L141.847 133.474L138.953 132.262L140.882 127.411Z" fill="black"/>
<path d="M210.979 120.578L214.837 116.741L217.008 119.166L212.994 122.804L210.979 120.578Z" fill="black"/>
<path d="M179.23 143.417L184.053 145.357L183.571 146.569L180.677 146.812L179.23 146.812L178.024 146.569L179.23 143.417Z" fill="black"/>
<path d="M166.93 0.095459L174.888 2.52053L174.647 16.3434L165.965 15.6159L166.93 0.095459Z" fill="#A16207"/>
<defs>
<linearGradient id="paint0_linear_550_2359" x1="163.234" y1="147.301" x2="169.568" y2="34.5356" gradientUnits="userSpaceOnUse">
<stop stop-color="#BA7106"/>
<stop offset="1" stop-color="#F9D423"/>
</linearGradient>
</defs>
</svg>
